<?xml version="1.0" encoding="UTF-8"?>
<svg width="1600px" height="1600px" viewBox="0 0 1600 1600" version="1.1" xmlns="http://www.w3.org/2000/svg" xmlns:xlink="http://www.w3.org/1999/xlink">
    <!-- Generator: Sketch 63.1 (92452) - https://sketch.com -->
    <title>radio-alhara-logo</title>
    <desc>Created with Sketch.</desc>
    <defs>
        <polygon id="path-1" points="0 0 946 0 946 946 0 946"></polygon>
    </defs>
    <g id="Page-1" stroke="none" stroke-width="1" fill="none" fill-rule="evenodd">
        <g id="radio-alhara-logo">
            <rect id="Rectangle" fill="#000000" fill-rule="nonzero" x="0" y="0" width="1600" height="1600"></rect>
            <g id="Radio-Alhara-logo" transform="translate(327.000000, 327.000000)">
                <g id="circle">
                    <g id="Fill-1-Clipped">
                        <mask id="mask-2" fill="white">
                            <use xlink:href="#path-1"></use>
                        </mask>
                        <g id="path-1"></g>
                        <path d="M708.62057,20.1997278 C674.32807,20.1997278 637.022385,25.5472555 597.395496,36.3518018 C479.837478,68.4150704 356.664774,144.493617 250.581385,250.581385 C33.0057649,468.157005 -44.2290037,744.940839 78.4093851,867.587988 C201.052154,990.230753 477.840367,912.995988 695.420367,695.420367 C913.000367,477.840367 990.235131,201.052154 867.592367,78.4093851 C829.051626,39.8642649 774.380709,20.1997278 708.62057,20.1997278 M237.328626,946.000874 C166.150885,946.000874 106.579163,924.317329 64.127413,881.874336 C0.136644445,817.88357 -16.6504759,714.966654 16.86245,592.087385 C49.8410611,471.17895 127.767811,344.826635 236.299413,236.295033 C344.831015,127.767811 471.18333,49.8366815 592.087385,16.86245 C714.971033,-16.6504759 817.88795,0.132264815 881.878715,64.1230333 C945.865109,128.118182 962.652231,231.030718 929.139298,353.914367 C896.165071,474.818422 818.233941,601.175117 709.702339,709.706718 C601.175117,818.233941 474.818422,896.165071 353.914367,929.134919 C312.553145,940.416852 273.443051,946.000874 237.328626,946.000874" id="Fill-1" fill="#FFFFFE" fill-rule="nonzero" mask="url(#mask-2)"></path>
                    </g>
                </g>
            </g>
        </g>
    </g>
</svg>